<svg width="10" height="10" viewBox="0 0 10 10" fill="none" xmlns="http://www.w3.org/2000/svg">
<path id="Vector" d="M10 0.555539V7.77754C10.0001 7.88748 9.96755 7.99497 9.90651 8.08641C9.84548 8.17785 9.75868 8.24912 9.65712 8.2912C9.55555 8.33328 9.44378 8.34429 9.33596 8.32281C9.22814 8.30134 9.12911 8.24836 9.05142 8.17058L5.83346 4.95193L0.948891 9.8372C0.844649 9.94144 0.703267 10 0.555847 10C0.408427 10 0.267045 9.94144 0.162804 9.8372C0.0585623 9.73295 0 9.59157 0 9.44415C0 9.29673 0.0585623 9.15535 0.162804 9.05111L5.04807 4.16654L1.82942 0.948582C1.75164 0.870887 1.69866 0.77186 1.67719 0.664039C1.65571 0.556217 1.66672 0.444449 1.7088 0.342884C1.75088 0.241319 1.82215 0.154523 1.91359 0.093486C2.00503 0.0324485 2.11252 -8.63459e-05 2.22246 1.72106e-07H9.44446C9.5918 1.72106e-07 9.7331 0.05853 9.83729 0.162714C9.94147 0.266897 10 0.408201 10 0.555539Z" fill="#3D3D3D"/>
</svg>
